# xmcd CD database file
#
# Track frame offsets:
#	150
#	26432
#	46507
#
# Disc length: 968 seconds
#
# Revision: 4
# Processed by: cddbd v1.5PL3 Copyright (c) Steve Scherf et al.
# Submitted via: CDex 1.50Beta7
#
DISCID=1403c603
DTITLE=松たか子 - 桜の雨、いつか
DYEAR=2000
DGENRE=JPop
TTITLE0=桜の雨、いつか
TTITLE1=your birthday
TTITLE2=桜の雨、いつか (instrumental)
EXTD=matsu,mmasa-yk YEAR: 2000/02/09
EXTT0=
EXTT1=
EXTT2=
PLAYORDER=
